<svg id="RWD_Icon_Set" data-name="RWD Icon Set" xmlns="http://www.w3.org/2000/svg" viewBox="0 0 30 17.14"><defs><style>.cls-1,.cls-34,.cls-9{fill:#fff;}.cls-2,.cls-30{fill:#9c4314;}.cls-3{fill:#42b2f3;}.cls-10,.cls-11,.cls-12,.cls-13,.cls-14,.cls-15,.cls-17,.cls-19,.cls-20,.cls-22,.cls-27,.cls-28,.cls-29,.cls-3,.cls-30,.cls-31,.cls-32,.cls-33,.cls-34,.cls-35,.cls-36,.cls-37,.cls-38,.cls-39,.cls-4,.cls-41,.cls-42,.cls-43,.cls-6,.cls-7,.cls-9{stroke:#000;}.cls-10,.cls-11,.cls-12,.cls-13,.cls-14,.cls-15,.cls-16,.cls-17,.cls-19,.cls-20,.cls-21,.cls-22,.cls-23,.cls-24,.cls-25,.cls-26,.cls-27,.cls-28,.cls-29,.cls-3,.cls-30,.cls-31,.cls-32,.cls-33,.cls-34,.cls-35,.cls-36,.cls-37,.cls-38,.cls-39,.cls-4,.cls-40,.cls-41,.cls-42,.cls-43,.cls-5,.cls-6,.cls-7,.cls-8,.cls-9{stroke-width:0.03px;}.cls-19,.cls-28,.cls-31,.cls-33,.cls-35,.cls-4,.cls-41{fill:none;}.cls-17,.cls-21,.cls-25,.cls-27,.cls-5{fill:#008d00;}.cls-5{stroke:#286726;}.cls-6{fill:#33b1e9;}.cls-7{fill:#983d25;}.cls-8{fill:#268728;stroke:#000003;}.cls-19,.cls-27,.cls-28,.cls-29,.cls-31,.cls-32,.cls-35,.cls-42,.cls-8{stroke-linecap:round;}.cls-10,.cls-27,.cls-28,.cls-29,.cls-30,.cls-35,.cls-40,.cls-42,.cls-8{stroke-linejoin:round;}.cls-10{fill:#ba4600;}.cls-11{fill:#973100;}.cls-12{fill:#009400;}.cls-13{fill:#ffba00;}.cls-13,.cls-30,.cls-31,.cls-32,.cls-33,.cls-34,.cls-35{stroke-opacity:0.77;}.cls-14{fill:#d40000;}.cls-15{fill:#973000;}.cls-16{fill:#008d2b;stroke:#005e00;}.cls-18{fill:#6d390b;}.cls-20{fill:#dc0000;}.cls-21{stroke:#286026;}.cls-22{fill:#d90000;}.cls-23{fill:#008f00;}.cls-23,.cls-24,.cls-25{stroke:#286326;}.cls-24{fill:#008c00;}.cls-26{fill:#00602b;stroke:#004500;}.cls-29{fill:#f6aa00;}.cls-32{fill:#00c600;}.cls-36{fill:#9f3000;}.cls-37{fill:#238700;}.cls-38{fill:#ffbc00;}.cls-39{fill:#f7b200;}.cls-40{fill:#288800;stroke:#000100;}.cls-41{stroke-opacity:0.64;}.cls-42,.cls-43{fill:#9d4600;}.cls-42{fill-opacity:0.99;}.cls-44{fill:#296526;}.cls-45{fill:#0b7226;}.cls-46{fill:#bc0000;}</style></defs><rect id="rect880" class="cls-1" width="30" height="17.14"/><g id="g877"><path id="path723" class="cls-2" d="M11.49,9.21L11.59,9c0.05,0,.14,0,0.08-0.09l0.05-.1c0-.07,0-0.1-0.07-0.05l-0.06.1c-0.1,0-.11.06-0.06,0.08l-0.08.11Z"/><path id="path724" class="cls-2" d="M11.47,9.16l-0.17-.1c0-.05,0-0.14-0.09-0.08l-0.1-.05C11,8.9,11,9,11.07,9l0.1,0.06c0,0.1.07,0.11,0.09,0.06l0.18,0.11S11.44,9.18,11.47,9.16Z"/><path id="path721" class="cls-2" d="M12.18,10.35s0-.23,0-0.19,0.13-.07,0-0.11,0-.07,0-0.11-0.09-.07-0.09,0,0,0.07,0,.11-0.06.11,0,.1l0,0.13Z"/><path id="path722" class="cls-2" d="M12.15,10.32H12c0-.06-0.07-0.13-0.11,0H11.73c-0.08,0-.07.09,0,0.09h0.11c0,0.11.11,0.06,0.1,0l0.19,0S12.13,10.35,12.15,10.32Z"/><path id="path691" class="cls-3" d="M14.47,11.09a0.37,0.37,0,0,0,.11.11h1l0,0s0-.06.05-0.09,0.11-.06.15-0.1,0.37-.09.56-0.12c0-.11-0.13-0.09-0.19-0.13a0,0,0,0,1,0-.05l0.43-.2v0c-0.3,0-.58.09-0.91,0.11L14.55,11Z"/><path id="path610" class="cls-4" d="M11.4,9h0s0,0,0,0"/><path id="path611" class="cls-5" d="M11.42,9.1A0.54,0.54,0,0,0,11,8.66S11,8.54,11,8.54h0a0.06,0.06,0,0,0,.07-0.08l-0.07-.14a0,0,0,0,1,.08-0.05,0.34,0.34,0,0,0,.11.08,0.11,0.11,0,0,0,0-.09V8.13c0-.08.05-0.12,0.11-0.06s0,0,0,0,0,0,0,0L11.53,8s0.07,0,.07.06l-0.09.1s0,0.05,0,.07H11.6c0.05,0,.06.08,0,0.08a0.44,0.44,0,0,1-.11.09s0,0,0,.06a0.19,0.19,0,0,0,.1,0c0.06,0,.05.13-0.05,0.12a0.09,0.09,0,0,0-.09.06,1,1,0,0,0,0,.13,1.62,1.62,0,0,0,0,.22C11.45,9.11,11.42,9.08,11.42,9.1Z"/><path id="path612" class="cls-5" d="M12,10.27a0.58,0.58,0,0,0-.42-0.2s-0.11-.09,0-0.11h0.05s0-.1-0.06-0.07H11.47c-0.1,0-.14-0.12-0.07-0.16a0.44,0.44,0,0,0,.17,0s0-.05,0-0.06a0.64,0.64,0,0,1-.29-0.1c0-.07,0-0.12.07-0.08s0.07,0,.05,0a0.25,0.25,0,0,1,0-.08s0-.05,0,0a0.16,0.16,0,0,0,.16.05s0-.12.11-0.1,0,0.08,0,.16a0,0,0,0,0,.07,0c0-.13.11-0.13,0.13-0.09a0.44,0.44,0,0,1,0,.2,0.18,0.18,0,0,0,0,.14s0,0,0-.05,0.13,0.09,0,.14a0.56,0.56,0,0,0,.07.41S12,10.25,12,10.27Z"/><path id="path702" class="cls-2" d="M13.24,11.26s0-.23,0-0.19,0.12-.09,0-0.12,0-.07,0-0.11-0.09-.05-0.09,0,0,0.07,0,.11,0,0.12,0,.1V11.2Z"/><path id="path720" class="cls-2" d="M13.24,11.24l-0.19,0c0-.06-0.09-0.12-0.12,0l-0.11,0c-0.08,0-.05.1,0,0.09h0.11c0,0.11.12,0,.1,0h0.19S13.22,11.27,13.24,11.24Z"/><path id="path637" class="cls-6" d="M13.16,10c0.54,0.32.68,0.27,0.66,0.13a0.1,0.1,0,0,0,.11,0,0.32,0.32,0,0,0,.36.31c0.13,0,.11.17,0.11,0.17,0,0.17,0,.24,0,0.41v0c-0.15,0-.46,0-0.57-0.07h0c0.52-.36-0.4-0.37-0.49-0.38s0-.07,0-0.09c0.29-.06-0.27-0.33-0.26-0.36s0,0,0,0S13.12,10,13.16,10Z"/><path id="path643" class="cls-7" d="M14.52,10.29a0.17,0.17,0,0,0-.17.17,1.5,1.5,0,0,0,0,.49,0.17,0.17,0,0,0,.17.17,6.16,6.16,0,0,0,1.13,0,0.17,0.17,0,0,0,.17-0.17,1,1,0,0,0,0-.49,0.17,0.17,0,0,0-.17-0.17A8.05,8.05,0,0,0,14.52,10.29Z"/><path id="path1138" class="cls-8" d="M13.25,5.66L13,5.88a0.23,0.23,0,0,0-.14.35c0,0.32.21,0.37,0.43,0.3,0-.08,0-0.14.09-0.22a2,2,0,0,0-.24,0,0.05,0.05,0,0,1,0-.09l0.28-.14v0l-0.22.09c-0.07,0-.09-0.06-0.06-0.1l0.17-.25A0.3,0.3,0,0,0,13.25,5.66Z"/><path id="path614" class="cls-9" d="M14,10a0.13,0.13,0,0,0-.27,0h0A0.13,0.13,0,0,0,14,10h0Z"/><path id="path615" class="cls-9" d="M13.33,10.55a0.13,0.13,0,0,0-.25,0h0a0.13,0.13,0,0,0,.25,0h0Z"/><path id="path616" class="cls-9" d="M16.49,10.83a0.13,0.13,0,1,0-.25,0h0a0.13,0.13,0,1,0,.25,0h0Z"/><path id="path1143" class="cls-10" d="M13.26,5.83c0,0.08,0,.17,0,0.2a0.53,0.53,0,0,0,0-.16Z"/><path id="path617" class="cls-11" d="M14.51,11a0.13,0.13,0,0,0-.25,0h0a0.13,0.13,0,0,0,.25,0h0Z"/><path id="path618" class="cls-11" d="M15.85,11a0.13,0.13,0,0,0-.25,0h0a0.13,0.13,0,0,0,.25,0h0Z"/><path id="path619" class="cls-11" d="M15.85,10.37a0.13,0.13,0,0,0-.25,0h0a0.13,0.13,0,0,0,.25,0h0Z"/><path id="path620" class="cls-11" d="M14.51,10.37a0.13,0.13,0,0,0-.25,0h0a0.13,0.13,0,0,0,.25,0h0Z"/><path id="path621" class="cls-5" d="M13.26,11.33a0.38,0.38,0,0,0-.39-0.18H12.71c-0.05,0,0-.06,0-0.08a0.28,0.28,0,0,0-.18,0l-0.12,0c-0.1,0-.15-0.08-0.08-0.12a0.55,0.55,0,0,1,.2,0,0.05,0.05,0,0,0,0-.09,0.87,0.87,0,0,1-.31-0.06c0-.07,0-0.1.08-0.09s0.06,0,0,0-0.11-.06-0.12-0.1,0.05-.12.1-0.1-0.08-.1,0-0.14,0.08,0,.1.1,0-.07.1-0.1,0,0.3.07,0.3,0.05-.18.11-0.14a0.75,0.75,0,0,1,.12.37c0.09,0.08.1-.07,0.12-0.05s0.07,0,0,.1A0.14,0.14,0,0,0,13,11a1.15,1.15,0,0,0,.25.27C13.28,11.4,13.26,11.31,13.26,11.33Z"/><path id="path622" class="cls-12" d="M14.81,11.62a1.25,1.25,0,0,0-.37.34,0.53,0.53,0,0,1,.15,0,1.37,1.37,0,0,1,.34-0.3Z"/><path id="path629" class="cls-12" d="M15.22,11.63a1.45,1.45,0,0,1,.37.34,0.36,0.36,0,0,0-.14,0,1.43,1.43,0,0,0-.35-0.3Z"/><path id="path630" class="cls-9" d="M15.11,11.66a1.09,1.09,0,0,1,.34.3,0.43,0.43,0,0,0-.15,0A2.43,2.43,0,0,0,15,11.68Z"/><path id="path827" class="cls-13" d="M13.52,6.16a0.14,0.14,0,0,0-.1.13,0.24,0.24,0,0,0,.16.45c-0.17-.26,0-0.4.19-0.31a0.8,0.8,0,0,1,.1.13,0.45,0.45,0,0,1,.18-0.15,0.13,0.13,0,0,0,.14-0.06,2.69,2.69,0,0,1,.12-0.25L13.94,6H13.68l-0.14.06S13.53,6.13,13.52,6.16Z"/><path id="path631" class="cls-14" d="M15,11.66a1.19,1.19,0,0,1,.35.33,0.38,0.38,0,0,0-.09.1,1.73,1.73,0,0,0-.36-0.44S14.94,11.67,15,11.66Z"/><path id="path627" class="cls-9" d="M14.91,11.64a1,1,0,0,0-.33.3,0.37,0.37,0,0,1,.14,0A2.43,2.43,0,0,1,15,11.66Z"/><path id="path628" class="cls-14" d="M15,11.65a1.18,1.18,0,0,0-.34.33,0.14,0.14,0,0,1,.08.1,1.93,1.93,0,0,1,.4-0.44S15.09,11.66,15,11.65Z"/><path id="path635" class="cls-15" d="M13.15,10.08A0.21,0.21,0,0,0,13,9.88a0.19,0.19,0,0,0-.25.06,0.21,0.21,0,0,0,.18.2,0.19,0.19,0,0,0,.26-0.06h0L12.93,10Z"/><path id="path761" class="cls-16" d="M14.77,11.44l-0.42.29s0.08,0,.12,0l0.33-.23,0.07,0C14.83,11.48,14.83,11.44,14.77,11.44Z"/><path id="path636" class="cls-15" d="M13.89,10.88a0.18,0.18,0,0,0-.23,0,0.17,0.17,0,0,0-.14.18,0.18,0.18,0,0,0,.23,0,0.17,0.17,0,0,0,.14-0.18h0L13.71,11Z"/><path id="path756" class="cls-17" d="M16,10.09c0-.33.3,0,0.41-0.18,0.27-.32.29-0.34,0.53-0.31,0.64,0.25,0,.83-0.68.57C16.21,10.13,16.09,10.13,16,10.09Z"/><g id="g660"><path id="path657" class="cls-18" d="M18.43,9a0.08,0.08,0,0,0-.07-0.09,0.07,0.07,0,0,0-.1,0h0a0.08,0.08,0,0,0,.07.09,0.07,0.07,0,0,0,.1,0h0L18.35,9Z"/><rect id="rect659" class="cls-18" x="18.44" y="8.96" width="0.06" height="0.21" transform="translate(-0.48 17.07) rotate(-49.06)"/></g><path id="path1192" class="cls-18" d="M17.47,9.46l0,0,0.12-.1,0,0Z"/><path id="path638" class="cls-19" d="M14.52,10.29c0.2,0.06.34,0.78,0.54,0.85"/><path id="path639" class="cls-19" d="M14.71,10.28c0.2,0.06.34,0.78,0.54,0.85"/><path id="path640" class="cls-19" d="M14.89,10.28c0.2,0.06.34,0.79,0.54,0.85"/><path id="path645" class="cls-15" d="M16.8,10.37a0.18,0.18,0,0,0-.23,0,0.17,0.17,0,0,0-.14.18,0.18,0.18,0,0,0,.23,0,0.17,0.17,0,0,0,.14-0.18h0l-0.18.07Z"/><path id="path650" class="cls-20" d="M17.56,9.63a0.09,0.09,0,0,1-.08.11,0.11,0.11,0,0,1-.14,0,0.11,0.11,0,0,1,.1-0.11A0.09,0.09,0,0,1,17.56,9.63Z"/><path id="path719" class="cls-21" d="M14.57,11.48a0.58,0.58,0,0,0-.43.27s-0.17.07-.15,0l0.06-.07s-0.1,0-.09,0a0.13,0.13,0,0,0-.08,0c-0.06.08-.16,0.07-0.16,0a0.22,0.22,0,0,0,.08-0.1s-0.07-.06-0.1,0-0.1.08-.17,0.11-0.16,0-.09-0.06,0-.1,0-0.1-0.27,0-.31,0-0.09-.08,0-0.1,0.16,0,.18-0.09,0.33,0.1.28,0,0.08-.2.14-0.09a0.25,0.25,0,0,0,.17.11c0.06,0-.12-0.16,0-0.19a0.18,0.18,0,0,1,.13.07,0.22,0.22,0,0,0,.15.16s0,0,0-.07,0.1-.06.14,0a0.85,0.85,0,0,0,.47,0C14.83,11.42,14.93,11.47,14.57,11.48Z"/><path id="path648" class="cls-20" d="M17.33,9.62a0.14,0.14,0,0,1-.06.21,0.19,0.19,0,0,1-.25,0,0.18,0.18,0,0,1,.09-0.23A0.15,0.15,0,0,1,17.33,9.62Z"/><path id="path651" class="cls-20" d="M17.4,9.4a0.09,0.09,0,0,1,0,.13,0.11,0.11,0,0,1-.14.06,0.11,0.11,0,0,1,0-.15A0.09,0.09,0,0,1,17.4,9.4Z"/><path id="path649" class="cls-20" d="M17.51,9.5a0.09,0.09,0,0,1,0,.12,0.11,0.11,0,0,1-.15,0,0.11,0.11,0,0,1,.06-0.14A0.09,0.09,0,0,1,17.51,9.5Z"/><path id="path653" class="cls-22" d="M17.72,9.3a0.07,0.07,0,0,1,0,.09,0.09,0.09,0,0,1-.11,0,0.08,0.08,0,0,1,0-.1A0.07,0.07,0,0,1,17.72,9.3Z"/><path id="path633" class="cls-9" d="M14.93,11.33c-0.09,0-.14,0-0.15.08a0.43,0.43,0,0,0,0,.15,0.15,0.15,0,0,0,.15.11h0.14a0.19,0.19,0,0,0,.17-0.11,0.5,0.5,0,0,0,0-.11c0-.09-0.06-0.1-0.15-0.11H14.93Z"/><path id="path654" class="cls-23" d="M18,10.24a0.83,0.83,0,0,1,.3-0.94c0.05,0,.07,0,0.05.06Z"/><path id="path656" class="cls-24" d="M18.51,9.59a0.35,0.35,0,0,1,.3-0.16,3.71,3.71,0,0,0-.31.52,1.55,1.55,0,0,1-.55.39Z"/><path id="path692" class="cls-12" d="M14.94,11.32l-0.09,0-0.07,0v0.08l0,0.09,0,0.06,0.11,0V11.32Z"/><path id="path655" class="cls-25" d="M18,10.34a2.11,2.11,0,0,1,.58-1.13,0.45,0.45,0,0,1,0,.32A1.72,1.72,0,0,1,18,10.34Z"/><g id="g663"><path id="path664" class="cls-18" d="M18.74,9.1a0.08,0.08,0,0,1,.11,0,0.07,0.07,0,0,1,.05.09h0a0.08,0.08,0,0,1-.11,0,0.07,0.07,0,0,1-.05-0.09h0l0.08,0Z"/><rect id="rect665" class="cls-18" x="18.56" y="9.11" width="0.21" height="0.06" transform="translate(-0.66 1.49) rotate(-4.49)"/></g><g id="g666"><path id="path667" class="cls-18" d="M17.87,10.13a0.09,0.09,0,0,0,0-.12,0.08,0.08,0,0,0-.11,0h0a0.09,0.09,0,0,0,0,.12,0.08,0.08,0,0,0,.11,0h0l-0.07-.05Z"/><polygon id="rect668" class="cls-18" points="17.86 10.1 17.96 10.3 17.91 10.34 17.8 10.14 17.86 10.1"/></g><g id="g669"><path id="path670" class="cls-18" d="M18.13,10.41a0.09,0.09,0,0,0,.12,0,0.08,0.08,0,0,0,.05-0.1h0a0.09,0.09,0,0,0-.12,0,0.08,0.08,0,0,0-.05.1h0l0.08,0Z"/><polygon id="rect671" class="cls-18" points="18.16 10.4 17.93 10.4 17.93 10.33 18.16 10.34 18.16 10.4"/></g><path id="path682" class="cls-24" d="M17.8,10.64c0.22-.12.08,0,0.07,0.14a0.3,0.3,0,0,1-.2.26,2.08,2.08,0,0,1-.64.1C17.23,11,17.59,10.79,17.8,10.64Z"/><path id="path673" class="cls-24" d="M17.47,10.58a0.37,0.37,0,0,0,.1-0.29,2.77,2.77,0,0,1-.36.32,1.53,1.53,0,0,0-.25.53Z"/><path id="path675" class="cls-24" d="M16.34,11.5a0.59,0.59,0,0,1,.43.11,3.45,3.45,0,0,0-.57.14,3.46,3.46,0,0,1-.9-0.29C15.61,11.45,16,11.55,16.34,11.5Z"/><path id="path759" class="cls-26" d="M15.25,11.47l0.42,0.29s-0.08,0-.12,0l-0.33-.23-0.07,0C15.2,11.51,15.2,11.47,15.25,11.47Z"/><path id="path674" class="cls-24" d="M16.94,11.13a2,2,0,0,1,1-.76,0.41,0.41,0,0,1-.12.28A1.67,1.67,0,0,1,16.94,11.13Z"/><g id="g676"><path id="path677" class="cls-18" d="M16.87,11a0.09,0.09,0,0,0,0-.12,0.08,0.08,0,0,0-.11,0h0a0.09,0.09,0,0,0,0,.12,0.08,0.08,0,0,0,.1,0h0l0-.08Z"/><polygon id="rect678" class="cls-18" points="16.87 10.99 16.87 11.21 16.8 11.22 16.8 10.99 16.87 10.99"/></g><g id="g679"><path id="path680" class="cls-18" d="M17,11.34a0.09,0.09,0,0,0,.09.09,0.08,0.08,0,0,0,.1-0.06h0a0.09,0.09,0,0,0-.09-0.09,0.08,0.08,0,0,0-.1.06h0Z"/><polygon id="rect681" class="cls-18" points="17.05 11.36 16.86 11.23 16.89 11.18 17.09 11.3 17.05 11.36"/></g><path id="path660" class="cls-20" d="M12.09,8.49a0.08,0.08,0,0,1,.11,0,0.08,0.08,0,0,1,.05.1,0.1,0.1,0,0,1-.12,0A0.06,0.06,0,0,1,12.09,8.49Z"/><path id="path684" class="cls-24" d="M16.24,11.4a0.59,0.59,0,0,0,.34-0.28,0.92,0.92,0,0,0-.58.11c-0.18.11-.22,0.24-0.37,0.32A2.4,2.4,0,0,0,16.24,11.4Z"/><path id="path685" class="cls-24" d="M15.46,11.47c0.69,0.05.58-.23,1.33-0.22a0.49,0.49,0,0,1-.23.24A1,1,0,0,1,15.46,11.47Z"/><path id="path693" class="cls-14" d="M15.11,11.32v0.32l0.09,0,0-.06,0-.08V11.38l-0.07,0H15.11Z"/><polygon id="rect656" class="cls-18" points="12.25 8.32 12.14 8.2 12.18 8.17 12.29 8.29 12.25 8.32"/><path id="path663" class="cls-20" d="M12.11,8.4a0.08,0.08,0,0,1,.12,0,0.11,0.11,0,0,1,.06.13,0.1,0.1,0,0,1-.13,0A0.09,0.09,0,0,1,12.11,8.4Z"/><path id="path658" class="cls-20" d="M12.41,8.26a0.08,0.08,0,0,1,.06.09,0.07,0.07,0,1,1-.13,0A0.08,0.08,0,0,1,12.41,8.26Z"/><path id="path661" class="cls-20" d="M12.26,8.29a0.08,0.08,0,0,1,.1.07,0.1,0.1,0,0,1,0,.13,0.1,0.1,0,0,1-.1-0.09A0.08,0.08,0,0,1,12.26,8.29Z"/><path id="path665" class="cls-27" d="M13.14,9.29C13,9,12.74,8.56,12.45,8.78S12.6,9.51,13,9.49Z"/><path id="path659" class="cls-20" d="M12.29,8.49a0.15,0.15,0,0,1,.22.06,0.15,0.15,0,1,1-.23.16A0.15,0.15,0,0,1,12.29,8.49Z"/><path id="path662" class="cls-20" d="M12.08,8a0.07,0.07,0,0,1,.1,0,0.07,0.07,0,1,1-.11.07A0.07,0.07,0,0,1,12.08,8Z"/><path id="path666" class="cls-17" d="M14.05,9.61a0.7,0.7,0,0,0-.88-0.35C12.74,9.57,13.36,10,14,9.81,14,9.75,14,9.67,14.05,9.61Z"/><path id="path668" class="cls-17" d="M15.3,9.75a1.06,1.06,0,0,0-1.17-.28c-0.39.44,0.18,0.75,1,.53Z"/><path id="path669" class="cls-28" d="M12.5,8.86L12.58,9V8.82"/><path id="path671" class="cls-28" d="M12.63,9l0.08,0.08"/><path id="path672" class="cls-28" d="M12.92,9V9.08H13"/><path id="path676" class="cls-28" d="M12.92,9.3l-0.08-.07"/><path id="path678" class="cls-28" d="M12.73,9.31l-0.11,0"/><path id="path679" class="cls-4" d="M12.53,9.1l-0.1,0"/><path id="path681" class="cls-28" d="M12.33,9H12.24"/><path id="path683" class="cls-28" d="M12.75,8.75V8.63"/><path id="path686" class="cls-28" d="M12.59,9.37H12.43"/><path id="path687" class="cls-28" d="M12.86,9.48l-0.12,0"/><path id="path688" class="cls-28" d="M13,9.07L13.13,9"/><path id="path689" class="cls-28" d="M12.77,8.93l0-.13"/><path id="path694" class="cls-4" d="M14.93,11.32c-0.09,0-.14,0-0.15.08a0.43,0.43,0,0,0,0,.15,0.14,0.14,0,0,0,.15.11h0.14a0.18,0.18,0,0,0,.17-0.11,0.44,0.44,0,0,0,0-.12c0-.08-0.06-0.1-0.15-0.11H14.93Z"/><path id="path695" class="cls-4" d="M14.94,11.32v0.32"/><path id="path696" class="cls-4" d="M15.11,11.32v0.32"/><path id="path699" class="cls-24" d="M18.58,8.58a0.36,0.36,0,0,0-.16-0.3,0.62,0.62,0,0,0,0,.4c0,0.14.15,0.23,0.17,0.35A1.82,1.82,0,0,0,18.58,8.58Z"/><path id="path700" class="cls-24" d="M18.81,8.42A0.24,0.24,0,0,1,19,8.25a1.89,1.89,0,0,0,0,.33,1.18,1.18,0,0,1-.32.4Z"/><path id="path698" class="cls-24" d="M18.56,9.14a1.71,1.71,0,0,1,.15-1,0.31,0.31,0,0,1,.09.22A1,1,0,0,1,18.56,9.14Z"/><path id="path712" class="cls-20" d="M13.72,9.12a0.16,0.16,0,0,1,.09.22c0,0.12-.1.2-0.19,0.17a0.18,0.18,0,0,1-.1-0.26A0.16,0.16,0,0,1,13.72,9.12Z"/><path id="path717" class="cls-20" d="M13.83,9a0.06,0.06,0,0,1,0,.08,0.08,0.08,0,0,1-.09,0,0.07,0.07,0,0,1,0-.1A0.06,0.06,0,0,1,13.83,9Z"/><path id="path718" class="cls-20" d="M13.65,9a0.06,0.06,0,0,1,.07.05,0.08,0.08,0,0,1,0,.09A0.07,0.07,0,0,1,13.61,9,0.06,0.06,0,0,1,13.65,9Z"/><path id="path713" class="cls-20" d="M13.73,9a0.06,0.06,0,0,1,0,.08,0.08,0.08,0,0,1-.08.06,0.07,0.07,0,0,1,0-.09A0.06,0.06,0,0,1,13.73,9Z"/><path id="path714" class="cls-20" d="M13.76,8.9a0,0,0,0,1,0,.06,0.06,0.06,0,0,1-.06,0,0.05,0.05,0,0,1,0-.07A0.05,0.05,0,0,1,13.76,8.9Z"/><path id="path715" class="cls-20" d="M13.88,9.09a0,0,0,0,1,0,.08,0.09,0.09,0,0,1-.1,0,0.06,0.06,0,0,1,0-.09A0.07,0.07,0,0,1,13.88,9.09Z"/><path id="path716" class="cls-20" d="M13.58,9a0.05,0.05,0,0,1,.06.05,0.07,0.07,0,0,1,0,.08,0.06,0.06,0,0,1-.06-0.07A0.05,0.05,0,0,1,13.58,9Z"/><path id="path750" class="cls-9" d="M16.33,9.58a0.16,0.16,0,0,1,0,.28,0.18,0.18,0,0,0-.18-0.17A0.34,0.34,0,0,1,16.33,9.58Z"/><path id="path751" class="cls-17" d="M15,10.25a0.7,0.7,0,0,1,1-.69c0.54,0.39,0,.72-0.81.74C15.13,10.25,15.11,10.29,15,10.25Z"/><path id="path740" class="cls-9" d="M15.2,9.43a0.16,0.16,0,0,0-.16.25,0.22,0.22,0,0,1,.27-0.05A0.33,0.33,0,0,0,15.2,9.43Z"/><path id="path739" class="cls-9" d="M15.29,9.65a0.16,0.16,0,0,0,0,.28,0.18,0.18,0,0,1,.18-0.17A0.3,0.3,0,0,0,15.29,9.65Z"/><path id="path738" class="cls-29" d="M16.34,9.59a0.12,0.12,0,0,0-.1-0.12,0.33,0.33,0,0,1-.2,0,1.76,1.76,0,0,1-.21-0.2L15.7,9.19a0.69,0.69,0,0,1-.17.2,0.2,0.2,0,0,1-.13,0,0.2,0.2,0,0,0-.2,0,0.36,0.36,0,0,1,0,.23,0.32,0.32,0,0,0,.09,0c0.1,0,.07.11,0.11,0.16a0.12,0.12,0,0,0,.17-0.11,0.31,0.31,0,0,1,.17-0.07,0.32,0.32,0,0,1,.21,0,0.23,0.23,0,0,1,.11.11,0.66,0.66,0,0,0,.16,0A0.11,0.11,0,0,1,16.34,9.59Z"/><path id="path741" class="cls-4" d="M15.65,9.26V9.44a0.12,0.12,0,0,0,.18,0V9.25"/><path id="path742" class="cls-19" d="M15.69,9.63a0.15,0.15,0,0,0,0-.09"/><path id="path743" class="cls-19" d="M15.82,9.61V9.54"/><path id="path744" class="cls-19" d="M15.94,9.61V9.54"/><path id="path745" class="cls-19" d="M15.61,9.55a0.13,0.13,0,0,1,0-.07"/><path id="path746" class="cls-19" d="M15.5,9.67s-0.1-.11-0.08-0.1"/><path id="path747" class="cls-19" d="M15.4,9.46s0-.05,0,0"/><path id="path748" class="cls-19" d="M15.64,9.43a0.94,0.94,0,0,0-.34.2"/><path id="path749" class="cls-19" d="M16,9.51s0,0,0,0"/><path id="path752" class="cls-28" d="M13.41,9.58h0.12L13.42,9.5"/><path id="path753" class="cls-28" d="M14.15,9.71h0.12l-0.1-.11"/><path id="path754" class="cls-28" d="M14.46,9.73s0.13,0,.12,0L14.5,9.62"/><path id="path755" class="cls-28" d="M14.29,9.3l0.08,0.1V9.26"/><path id="path757" class="cls-28" d="M16.61,9.94v0.14L16.7,10"/><path id="path758" class="cls-28" d="M15.63,9.9V10L15.74,10"/><path id="path763" class="cls-28" d="M13.32,9.28L13.4,9.36"/><path id="path764" class="cls-28" d="M13.17,9.41l0.08,0.08"/><path id="path765" class="cls-28" d="M13.72,9.62h0.11"/><path id="path766" class="cls-28" d="M13.54,9.73h0.11"/><path id="path767" class="cls-28" d="M14.36,9.48l0.08,0.08"/><path id="path768" class="cls-28" d="M14.7,9.52L14.78,9.6"/><path id="path769" class="cls-28" d="M14.07,9.37l0.08,0.08"/><path id="path770" class="cls-28" d="M13.22,9.11L13.3,9.19"/><path id="path771" class="cls-28" d="M14.13,10.1L14.2,10"/><path id="path772" class="cls-28" d="M14.5,10.17l0.07-.09"/><path id="path773" class="cls-28" d="M13.05,9.73h0.11"/><path id="path774" class="cls-28" d="M13.27,9.65h0.08l-0.11-.08"/><path id="path775" class="cls-28" d="M13.41,9.89h0.11"/><path id="path776" class="cls-28" d="M14.76,9.78h0.11"/><path id="path777" class="cls-28" d="M14.56,9.94h0.11"/><path id="path778" class="cls-28" d="M14.7,9.35l0.08,0.1V9.31"/><path id="path780" class="cls-28" d="M15.81,9.69l-0.08.08"/><path id="path781" class="cls-28" d="M16.08,9.78L16,9.86"/><path id="path782" class="cls-28" d="M16,10l-0.08.08"/><path id="path783" class="cls-28" d="M16.91,10l-0.08.08"/><path id="path784" class="cls-28" d="M16.41,10l-0.08.08"/><path id="path785" class="cls-28" d="M16.9,9.49l-0.08.08"/><path id="path786" class="cls-28" d="M17.28,10H17.17"/><path id="path787" class="cls-28" d="M16.33,10.29V10.17"/><path id="path788" class="cls-28" d="M16.69,9.77l0.06-.1"/><path id="path789" class="cls-28" d="M16.87,9.88l0.06-.1"/><path id="path790" class="cls-28" d="M17,10.19H16.89L17,10.26"/><path id="path791" class="cls-28" d="M15.31,10.16v0.12l0.13-.07"/><path id="path792" class="cls-28" d="M14.3,9.94a0.24,0.24,0,0,0,.09-0.05l-0.08,0"/><path id="path828" class="cls-30" d="M17.73,9.17a1.06,1.06,0,0,0,.13-0.58,2,2,0,0,1,0-.55,2,2,0,0,0,0-.79A0.11,0.11,0,0,0,18,7.17c-0.23.08-.28-0.48-0.5-0.81a2.68,2.68,0,0,0-.76-0.72,0.59,0.59,0,0,1,.1-0.16C16.5,5.66,16,5,15.19,5.09a0.29,0.29,0,0,0-.3.14,0.25,0.25,0,0,0-.29.24,0.14,0.14,0,0,0,.14.13,0.34,0.34,0,0,1,.32.19l0,0.18a0.75,0.75,0,0,0-.18-0.17,0.11,0.11,0,0,1,0-.08,0.27,0.27,0,0,0-.16,0,0.85,0.85,0,0,0-.41-0.08s0-.15,0-0.15a0.9,0.9,0,0,0-.11.17l-0.07-.2a0.65,0.65,0,0,0-.07.27,0.05,0.05,0,0,1-.09,0,1.11,1.11,0,0,1,0-.16,0.55,0.55,0,0,0-.12.26l0-.15a0.6,0.6,0,0,1-.3.42c0,0.08,0,.08,0,0.12l0.08,0h0.14a0.07,0.07,0,0,0,.06,0c0.16,0,.37-0.15.53,0.16a0.33,0.33,0,0,0-.12.23s-0.06,0,.06,0a1,1,0,0,0-.21.29s0.05,0,0,.06,0,0,0,0a0.93,0.93,0,0,0,0,.81c0,0.08.05,0,.11,0a2.15,2.15,0,0,0,.28.52,0.33,0.33,0,0,0-.18,0,0.47,0.47,0,0,0,.14.23l-0.12,0a0.69,0.69,0,0,0-.21.16c0,0.1.2,0.12,0.31,0.14a0.16,0.16,0,0,0,0,.12,1,1,0,0,0,.39,0l0,0a0.1,0.1,0,0,0,.1.06A0.25,0.25,0,0,0,15,8.74C15,8.82,15.11,8.94,15.18,9a0,0,0,0,0,.06,0l0.19,0.26s0,0,.06,0a0.1,0.1,0,0,0,.09-0.09l0,0s0.07,0,.1-0.07a0.14,0.14,0,0,1,.07,0s0,0.07.05,0.08a0.18,0.18,0,0,0,.06-0.15,0.12,0.12,0,0,0,.06.07s0-.08,0-0.1a2.5,2.5,0,0,1,.24.23,0.19,0.19,0,0,0,.19,0,0.24,0.24,0,0,0,.28,0c0.15,0.06.32,0,.32-0.08a0.62,0.62,0,0,0,.35,0,0.07,0.07,0,0,0,0-.11c-0.45-.32-1.12-0.84-1.38-1a1.35,1.35,0,0,0-.15-0.52,0.08,0.08,0,0,1,.06-0.1,0.54,0.54,0,0,0,.33.18,2.71,2.71,0,0,1,.24.31s0.1,0.06.09,0a1.53,1.53,0,0,0-.33-0.52,2.31,2.31,0,0,1,.37.27,2.78,2.78,0,0,1,.16.36s0.1,0.14.09,0a2.34,2.34,0,0,0-.13-0.46A1,1,0,0,1,17,8.3a0.32,0.32,0,0,0,.1.15A2.4,2.4,0,0,0,17,8c0-.05,0-0.11,0-0.16a1.29,1.29,0,0,1,.26.77c0,0.06,0,.13,0,0.16s0.07,0.14.06,0.08a5.49,5.49,0,0,0,0-.75,0.7,0.7,0,0,1,0-.2l0.16,0.78V8.87l0.08,0.08,0-.46-0.06-.55V7.79c0-.05,0,0,0.08,0s0,0.24,0,.37,0,0.26.05,0.46A2.14,2.14,0,0,0,17.73,9.17Z"/><path id="path793" class="cls-28" d="M15.2,10a0.24,0.24,0,0,0,0-.1l0,0.07"/><path id="path794" class="cls-28" d="M16.63,9.61V9.69"/><path id="path795" class="cls-28" d="M15.92,10.21a0.24,0.24,0,0,0-.1,0l0.06,0.07"/><path id="path823" class="cls-4" d="M14.73,8.4h0V8.55a0.34,0.34,0,0,1,0,.07l0,0.06a0.18,0.18,0,0,0,0,.06,0.2,0.2,0,0,0,0,.06,0.31,0.31,0,0,0,0,.05l0,0h0"/><path id="path825" class="cls-4" d="M14.4,8.92a0.08,0.08,0,0,1,0,0l0-.05,0.06-.05,0.05,0,0,0,0,0h0.11"/><path id="path829" class="cls-31" d="M17.45,7.46a0.49,0.49,0,0,1,.17.33"/><path id="path830" class="cls-31" d="M17.09,7.52a0.79,0.79,0,0,1,.22.38"/><path id="path831" class="cls-32" d="M16.86,7.62a0.68,0.68,0,0,1,.12.22"/><path id="path832" class="cls-32" d="M16.47,7.41a1.65,1.65,0,0,1,.26.35"/><path id="path833" class="cls-33" d="M14.88,5.21c0,0.37.55,0.28,0.6,0.64a0.69,0.69,0,0,1-.09.75,0.29,0.29,0,0,0,0,.3c0.14,0.36.36,0.42,0.45,0.73"/><path id="path834" class="cls-31" d="M14.68,5.47l0,0,0.14,0H15"/><path id="path835" class="cls-33" d="M15.39,8.91l0.19,0.31"/><path id="path836" class="cls-33" d="M16,8.44l1,0.78"/><path id="path837" class="cls-33" d="M16,8.66l0.75,0.65"/><path id="path838" class="cls-33" d="M14.57,7.85a1.15,1.15,0,0,0,.54.5,0.79,0.79,0,0,0,0-.26"/><path id="path839" class="cls-33" d="M14.88,7.73a0.94,0.94,0,0,0,.45.52,1.21,1.21,0,0,0-.18-0.71"/><path id="path840" class="cls-33" d="M14.93,7.47a0.59,0.59,0,0,0,.23.09,0.91,0.91,0,0,0-.1-0.66"/><path id="path841" class="cls-33" d="M14.58,7.59a0.42,0.42,0,0,0,.3.16,1.6,1.6,0,0,0,0-.7"/><path id="path842" class="cls-33" d="M14.24,7.7a4.11,4.11,0,0,0,.6.61,0.36,0.36,0,0,0,0-.13"/><path id="path843" class="cls-33" d="M16.49,5.83a6.14,6.14,0,0,1,.79,1,0.61,0.61,0,0,0,.62.45"/><path id="path844" class="cls-33" d="M15.56,8.09a1.2,1.2,0,0,0,.27.62,0.19,0.19,0,0,0,0-.15"/><path id="path845" class="cls-33" d="M14.82,7a0.27,0.27,0,0,0,.13.12,0.9,0.9,0,0,0,.16-0.64"/><path id="path846" class="cls-33" d="M14.51,6.95c0,0.13.05,0.24,0.15,0.24a0.74,0.74,0,0,0,.16-0.67"/><path id="path847" class="cls-33" d="M14.45,7.64l-0.07-.15"/><path id="path848" class="cls-33" d="M16,8.89l0.47,0.43"/><path id="path849" class="cls-33" d="M15.74,8.72l0.14,0.41"/><path id="path850" class="cls-33" d="M15.1,8.34a1.09,1.09,0,0,0,.47.52,0.7,0.7,0,0,0,0-.14"/><path id="path851" class="cls-33" d="M14.85,8.31a1.91,1.91,0,0,0,.55.61,0.21,0.21,0,0,0,0-.12"/><path id="path852" class="cls-33" d="M15.57,8.85L15.78,9.2"/><path id="path853" class="cls-33" d="M15.32,8a0.75,0.75,0,0,0,.24.11,1.67,1.67,0,0,0-.22-0.81"/><path id="path854" class="cls-33" d="M14.28,6.88c0,0.1,0,.21.07,0.21a1,1,0,0,0,.33-0.6"/><path id="path855" class="cls-33" d="M14.62,6.19a0.58,0.58,0,0,0,.28.38,0.62,0.62,0,0,0-.15-0.64"/><path id="path856" class="cls-33" d="M14.94,6.36a0.22,0.22,0,0,0,.18.07,0.79,0.79,0,0,0-.23-0.62"/><path id="path857" class="cls-33" d="M16.39,6.09a8.78,8.78,0,0,0,.9,1c0.05,0,.13.06,0.06-0.16"/><path id="path858" class="cls-33" d="M16.33,6.47a3.76,3.76,0,0,0,.58.66,0.16,0.16,0,0,0,.13,0,1.52,1.52,0,0,0,0-.3"/><path id="path859" class="cls-33" d="M16.18,6.69c0.14,0.16.33,0.33,0.56,0.54,0.06,0,.11,0,0.12,0a0.28,0.28,0,0,0,0-.16"/><path id="path860" class="cls-33" d="M16,7a0.89,0.89,0,0,0,.4.3c0.06,0,.09,0,0.1,0s0-.13,0-0.26"/><path id="path861" class="cls-33" d="M15.78,7.18a0.53,0.53,0,0,0,.27.25,0.13,0.13,0,0,0,.12,0,0.49,0.49,0,0,0,0-.22"/><path id="path862" class="cls-31" d="M15.72,6.16c0.14,0,.15-0.1.14-0.19a0.14,0.14,0,0,0-.18-0.14"/><path id="path863" class="cls-31" d="M15.64,6.65a0.13,0.13,0,0,0,.18-0.05c0-.06,0-0.2-0.08-0.18"/><path id="path864" class="cls-31" d="M15.75,6.41c0.13,0,.14-0.05.14-0.12a0.12,0.12,0,0,0-.16-0.13"/><path id="path869" class="cls-33" d="M15.87,6.08c0.19-.11.73,0.34,0.32,0.48"/><path id="path870" class="cls-33" d="M15.83,6.4c0.19-.11.6,0.26,0.18,0.4"/><path id="path871" class="cls-33" d="M15.76,6.65c0.21,0,.45.34,0,0.38"/><path id="path872" class="cls-31" d="M15.51,6.83a0.13,0.13,0,0,0,.17,0,0.12,0.12,0,0,0,0-.18"/><path id="path873" class="cls-33" d="M13.77,6.43c0.07-.09.24-0.15,0.3,0"/><path id="path874" class="cls-33" d="M15.64,6.85c0.12,0,.31.38,0,0.41"/><path id="path875" class="cls-31" d="M15.48,5.32c0.14,0,.21.25,0.32,0.27s0-.24-0.07-0.27"/><path id="path876" class="cls-33" d="M13.42,6.29a0.15,0.15,0,0,0,.16-0.08"/><path id="path883" class="cls-33" d="M14,6.93c0,0.07.12,0,.2,0a1.31,1.31,0,0,1,.26-0.44"/><path id="path884" class="cls-33" d="M14.17,7.79a5,5,0,0,0,.54.56,0.25,0.25,0,0,0,0-.13"/><path id="path885" class="cls-33" d="M14.7,8.34L15,8.76"/><path id="path886" class="cls-33" d="M15.33,8.24a1.11,1.11,0,0,0,.37.58,0.36,0.36,0,0,0,0-.19"/><path id="path887" class="cls-33" d="M15.26,8.82l0,0.19"/><path id="path888" class="cls-33" d="M15.71,7.89a2.35,2.35,0,0,0,.24.78A2.75,2.75,0,0,0,16,8.15"/><path id="path889" class="cls-33" d="M15.56,7.87h0.16a1.4,1.4,0,0,0-.23-0.72"/><path id="path890" class="cls-32" d="M15.93,7.35V7.57"/><path id="path891" class="cls-33" d="M15.17,7.26a0.38,0.38,0,0,0,.18,0C15.41,7,15.26,7,15.08,6.81"/><path id="path892" class="cls-31" d="M16,5.36a3.24,3.24,0,0,0,.24.3c0.16,0.05.07-.17,0-0.2"/><path id="path893" class="cls-33" d="M15.78,5.83a0.74,0.74,0,0,1,.58.13,0.19,0.19,0,0,1-.08.28"/><path id="path902" class="cls-33" d="M13.86,6a0.48,0.48,0,0,1,.76,0,0.19,0.19,0,0,0,.13,0,0.12,0.12,0,0,0,0-.11,0.51,0.51,0,0,0-.4-0.12"/><path id="path903" class="cls-33" d="M14.28,7.06a0.56,0.56,0,0,0,0,.54s0,0.05,0,.07a0.3,0.3,0,0,0-.11.12"/><path id="path904" class="cls-33" d="M16,8.55a1.75,1.75,0,0,0-.19-0.89"/><path id="path905" class="cls-33" d="M15.36,7.17a0.61,0.61,0,0,0,.13,0,0.33,0.33,0,0,0,0-.16h0.08a0.72,0.72,0,0,0,0-.16"/><path id="path906" class="cls-34" d="M13.62,6.17A0.33,0.33,0,0,1,13.78,6a0.07,0.07,0,0,1,.08,0,0.17,0.17,0,0,1,0,.12,0.24,0.24,0,0,1-.14.11Z"/><path id="path907" class="cls-33" d="M14.29,7.66l0.19,0.19h0.1V7.58"/><path id="path908" class="cls-35" d="M14.56,7.12a0.68,0.68,0,0,0,0,.33"/><path id="path909" class="cls-33" d="M14.34,7.64l0-.15"/><path id="path910" class="cls-33" d="M14.42,7.06a0.56,0.56,0,0,0,0,.35"/><path id="path911" class="cls-33" d="M15.79,7.68H15.7"/><path id="path1170" class="cls-36" d="M12.38,7.32s0,0,0,0-0.12,0-.17-0.18a0.3,0.3,0,0,1,.2-0.11,0.2,0.2,0,0,1,.1.07A2,2,0,0,1,12.38,7.32Z"/><path id="path912" class="cls-33" d="M15.79,7.68V7.49"/><path id="path913" class="cls-33" d="M15.95,8.66l0,0.46"/><path id="path1153" class="cls-37" d="M12.38,7.34c0.09,0.09.24,0,.26,0.24a0.75,0.75,0,0,0,0,.57,0.82,0.82,0,0,0,.2.17,1.32,1.32,0,0,1,.15.35,0.31,0.31,0,0,0,.36.15l0.38-.17L13.53,8.4l-0.22.18a0.19,0.19,0,0,1-.19-0.15A0.42,0.42,0,0,0,12.86,8a0.22,0.22,0,0,1-.08-0.3,0.46,0.46,0,0,0-.06-0.48,0.67,0.67,0,0,0-.26-0.13C12.33,7.18,12.34,7.17,12.38,7.34Z"/><path id="path914" class="cls-33" d="M14.24,5.57a0.35,0.35,0,0,0,0,.24"/><path id="path915" class="cls-33" d="M14,6H14.1a0.1,0.1,0,0,0,.07,0l0,0,0,0h0.06l0.05,0h0.19l0,0s0,0,0,.06a0.17,0.17,0,0,1,0,.06,0.22,0.22,0,0,1,0,.06,0.08,0.08,0,0,1,0,0H14.43l-0.05,0a0.05,0.05,0,0,0,0,0H14.22l0,0h-0.1"/><path id="path916" class="cls-33" d="M14.09,6.07h0.25"/><path id="path917" class="cls-33" d="M14.36,6h0s0,0,0,0a0.09,0.09,0,0,0,0,.06l0,0a0,0,0,0,1,0,0l0,0,0,0a0.25,0.25,0,0,0,0,.06v0"/><path id="path918" class="cls-33" d="M15.88,5.51s0.09,0.17.19,0.07a0.08,0.08,0,0,0,0-.06,0.18,0.18,0,0,0,0,0"/><path id="path1183" class="cls-9" d="M13.45,8.75a0.09,0.09,0,0,0,.15,0,0.1,0.1,0,0,1-.1-0.09A0.18,0.18,0,0,0,13.45,8.75Z"/><path id="path919" class="cls-33" d="M16.31,5.66a0.32,0.32,0,0,0,.21.08,0.39,0.39,0,0,0,.23-0.1"/><path id="path920" class="cls-33" d="M16.48,5.74a0.84,0.84,0,0,1,0,.09,0.21,0.21,0,0,1,0,.09,0.09,0.09,0,0,1-.06.06,0.12,0.12,0,0,1-.06,0"/><path id="path921" class="cls-33" d="M15.77,5.57a1.35,1.35,0,0,0,.12.24"/><path id="path1184" class="cls-9" d="M13.51,8.71a0.09,0.09,0,0,0,.15,0,0.1,0.1,0,0,1-.1-0.09A0.18,0.18,0,0,0,13.51,8.71Z"/><path id="path1185" class="cls-9" d="M13.6,8.67a0.09,0.09,0,0,0,.15,0,0.1,0.1,0,0,1-.1-0.09A0.18,0.18,0,0,0,13.6,8.67Z"/><path id="path922" class="cls-33" d="M15.25,5.46h0a1,1,0,0,1,.47.1"/><path id="path923" class="cls-33" d="M15.31,7V7s0,0,0-.06a0.16,0.16,0,0,1,0-.07v0"/><path id="path924" class="cls-33" d="M14.72,8.4h0V8.54a0.34,0.34,0,0,1,0,.07l0,0.06a0.18,0.18,0,0,0,0,.06,0.2,0.2,0,0,0,0,.06,0.31,0.31,0,0,0,0,.05l0,0,0,0"/><path id="path925" class="cls-33" d="M14.46,8.15h0V8.26s0,0.06,0,.08a0.64,0.64,0,0,0,0,.07,0.73,0.73,0,0,0,0,.12l0,0.05h0.11a0,0,0,0,0,0,0v0"/><path id="path926" class="cls-33" d="M14.39,8.91a0.08,0.08,0,0,1,0,0l0-.05a0.54,0.54,0,0,1,.25-0.14h0"/><path id="path927" class="cls-33" d="M14.41,8.53a0.48,0.48,0,0,0,.14.05"/><path id="path1104" class="cls-4" d="M14.68,8.69h0Z"/><path id="path1106" class="cls-38" d="M14.64,8.69l-0.45-.14L14,8.67l0.43,0.14,0.17-.12h0Z"/><path id="path1107" class="cls-39" d="M14.21,8.55a0.18,0.18,0,0,0-.07-0.22,0.51,0.51,0,0,0-.63,0,0.11,0.11,0,0,0-.12.11c-0.19.05,0,.27,0,0.28s0.08,0,.09,0a0.1,0.1,0,0,0,.1-0.05s0.08,0,.08,0c0.13,0.12.3,0.2,0.32,0Z"/><path id="path1109" class="cls-4" d="M13.39,8.46a0.33,0.33,0,0,0,.13.26"/><path id="path1110" class="cls-4" d="M13.5,8.36a0.39,0.39,0,0,0,.1.31"/><path id="path1111" class="cls-4" d="M13.64,8.27a0.31,0.31,0,0,0,.05.37"/><path id="path1108" class="cls-40" d="M13.85,6.53c0.19,0.25-.07.52-0.31,0.68s-0.42.63,0.06,0.65a0.54,0.54,0,0,1,.47.12,0.37,0.37,0,0,1-.16.55s-0.06-.09-0.09-0.11a0.72,0.72,0,0,1-.07,0c0-.09.13-0.21,0-0.24A0.6,0.6,0,0,1,13,7.62a0.88,0.88,0,0,1,.19-0.42c0.11-.15.41-0.33,0.44-0.41a0.18,0.18,0,0,0-.11-0.22C13.45,6.43,13.7,6.27,13.85,6.53Z"/><path id="path1117" class="cls-4" d="M13.44,7V7.31"/><path id="path1118" class="cls-4" d="M13.26,7.11l0.36,0.05"/><path id="path1119" class="cls-4" d="M13.52,6.9L13.83,7"/><path id="path1120" class="cls-41" d="M13.21,7.17l0.25,0.15"/><path id="path1121" class="cls-41" d="M13,7.48l0.2,0.21"/><path id="path1122" class="cls-41" d="M13.21,7.18l0,0.49"/><path id="path1123" class="cls-41" d="M13.07,7.39h0.32"/><path id="path1125" class="cls-4" d="M12.73,8.22A0.67,0.67,0,0,0,12.87,8"/><path id="path1126" class="cls-4" d="M12.84,8.31a0.76,0.76,0,0,1,.24-0.09"/><path id="path1127" class="cls-4" d="M13,8.59a0.76,0.76,0,0,0,.16-0.17"/><path id="path1128" class="cls-4" d="M13,8.61l0.31,0"/><path id="path1129" class="cls-4" d="M13.15,8.81a0.79,0.79,0,0,0,.2-0.12"/><path id="path1130" class="cls-4" d="M12.61,8.12A1.27,1.27,0,0,0,12.78,8"/><path id="path1131" class="cls-4" d="M12.57,8a0.83,0.83,0,0,0,.18-0.08"/><path id="path1132" class="cls-4" d="M12.59,7.8a0.57,0.57,0,0,1,.17,0"/><path id="path1133" class="cls-4" d="M12.64,7.66a0.38,0.38,0,0,1,.17,0"/><path id="path1134" class="cls-4" d="M12.65,7.56a0.29,0.29,0,0,1,.17,0"/><path id="path1135" class="cls-4" d="M12.62,7.49l0.18-.12"/><path id="path1136" class="cls-4" d="M12.59,7.44l0.16-.15"/><path id="path1137" class="cls-4" d="M12.55,7.42l0.11-.19"/><path id="path1140" class="cls-4" d="M13,6.27V6.55"/><path id="path1141" class="cls-4" d="M13.28,6.32a0.93,0.93,0,0,1-.17.24"/><path id="path1142" class="cls-4" d="M13.07,6.26a0.32,0.32,0,0,0-.22.09"/><path id="path1145" class="cls-42" d="M13.51,6.47a0.42,0.42,0,0,1,.3.51,0.38,0.38,0,0,0,0-.51A0.19,0.19,0,0,0,13.51,6.47Z"/><path id="path1146" class="cls-4" d="M13.57,6.61a0.31,0.31,0,0,1,.17-0.19"/><path id="path1147" class="cls-4" d="M13.61,6.68a0.37,0.37,0,0,1,.21-0.2"/><path id="path1148" class="cls-4" d="M13.61,6.82a0.66,0.66,0,0,0,.3-0.17"/><path id="path1149" class="cls-4" d="M13.63,6.74a1.86,1.86,0,0,1,.24-0.17"/><path id="path1150" class="cls-4" d="M13.8,6.82a0.31,0.31,0,0,0,.11-0.07"/><path id="path1151" class="cls-4" d="M13.51,6.48A0.44,0.44,0,0,1,13.8,7"/><path id="path1154" class="cls-41" d="M13.06,7.9l0.18-.22"/><path id="path1155" class="cls-41" d="M13.08,7.95h0.17"/><path id="path1156" class="cls-41" d="M13,7.72l0.23,0.13"/><path id="path1157" class="cls-43" d="M13.3,7.7l-0.11,0a0.85,0.85,0,0,0,.09.43,0.76,0.76,0,0,0,.49,0s0.07,0.09,0,.11a0.17,0.17,0,0,0-.06.15,0.21,0.21,0,0,0,.07,0,0.39,0.39,0,0,1,.08.13,0.52,0.52,0,0,0,.25-0.4A0.34,0.34,0,0,0,14,7.92a2,2,0,0,0-.51-0.06A0.26,0.26,0,0,1,13.3,7.7Z"/><path id="path1158" class="cls-4" d="M13.79,8.22a0.76,0.76,0,0,1,.35-0.07"/><path id="path1159" class="cls-4" d="M13.2,7.83a0.27,0.27,0,0,1,.14-0.06"/><path id="path1160" class="cls-4" d="M13.48,8.15a0.53,0.53,0,0,1,.13-0.29"/><path id="path1161" class="cls-4" d="M13.57,8.17a0.55,0.55,0,0,1,.14-0.3"/><path id="path1162" class="cls-4" d="M13.67,8.16a0.51,0.51,0,0,1,.13-0.29"/><path id="path1163" class="cls-4" d="M13.75,8.14a0.41,0.41,0,0,1,.15-0.26"/><path id="path1164" class="cls-4" d="M13.8,8.19A0.44,0.44,0,0,1,14,7.92"/><path id="path1165" class="cls-4" d="M13.8,8.21A0.56,0.56,0,0,1,14.09,8"/><path id="path1167" class="cls-4" d="M13.39,8.13a0.44,0.44,0,0,1,.13-0.27"/><path id="path1168" class="cls-4" d="M13.3,8.11a0.41,0.41,0,0,1,.14-0.26"/><path id="path1113" class="cls-4" d="M13.76,8.43c0.07-.06.12,0.12,0.12,0.15a0.09,0.09,0,0,0,.05.06"/><path id="path1169" class="cls-4" d="M13.24,8a0.52,0.52,0,0,1,.13-0.19"/><path id="path1112" class="cls-9" d="M13.63,8.27c-0.09.15,0,.27,0.13,0.22a0.25,0.25,0,0,1,.05-0.26A0.23,0.23,0,0,0,13.63,8.27Z"/><path id="path1171" class="cls-4" d="M13.28,7.2l0,0.21"/><path id="path1172" class="cls-4" d="M13.33,7.4l-0.08.26"/><path id="path1173" class="cls-4" d="M13.79,8.24a0.76,0.76,0,0,1,.36,0"/><path id="path1174" class="cls-4" d="M13.77,8.26a0.67,0.67,0,0,1,.35.09"/><path id="path1175" class="cls-4" d="M13.77,8.29a0.44,0.44,0,0,1,.26.15"/><path id="path1176" class="cls-4" d="M13.76,8.33a0.37,0.37,0,0,1,.19.18"/><rect id="rect1177" class="cls-44" x="11.43" y="9.08" width="0.08" height="0.37" transform="translate(-1.81 2.86) rotate(-13.2)"/><path id="path1179" class="cls-44" d="M12,10.3l0.16,0.18,0.06-.05-0.15-.19Z"/><path id="path1180" class="cls-44" d="M17,11.08l-0.2.14,0,0.07L17,11.16Z"/><path id="path1181" class="cls-44" d="M18,10.2l-0.18.17,0.05,0.06,0.19-.16Z"/><path id="path1182" class="cls-44" d="M18.58,9l-0.06.16,0,0,0.07-.15Z"/><path id="path1186" class="cls-4" d="M13.29,8.11a0.85,0.85,0,0,1-.1-0.44,0.17,0.17,0,0,0,.11,0"/><path id="path1187" class="cls-4" d="M13,6.26a0.29,0.29,0,0,1,.1-0.36"/><path id="path1188" d="M13.11,5.86a0.05,0.05,0,0,0-.07,0,0.06,0.06,0,0,0,0,.08,0.05,0.05,0,0,0,.07,0,0.06,0.06,0,0,0,0-.08h0l0,0Z"/><path id="path1189" class="cls-4" d="M12.65,7.21l-0.27,0"/><path id="path1190" class="cls-4" d="M12.54,7.4l-0.17-.22"/></g><rect id="rect1200" class="cls-45" width="10.05" height="17.14"/><rect id="rect1201" class="cls-46" x="20.01" width="9.99" height="17.14"/></svg>