<svg id="RWD_Icon_Set" data-name="RWD Icon Set" xmlns="http://www.w3.org/2000/svg" viewBox="0 0 30 15"><defs><style>.cls-1{fill:#006;}.cls-2{fill:#fff;}.cls-3{fill:#c00;}</style></defs><polygon class="cls-1" points="26.65 0 17.5 0 17.5 4.57 26.65 0"/><polygon class="cls-1" points="12.5 0 3.35 0 12.5 4.57 12.5 0"/><polygon class="cls-1" points="0 1.68 0 5 6.65 5 0 1.68"/><polygon class="cls-1" points="0 10 0 13.32 6.65 10 0 10"/><polygon class="cls-1" points="30 5 30 1.68 23.35 5 30 5"/><polygon class="cls-1" points="3.35 15 12.5 15 12.5 10.43 3.35 15"/><polygon class="cls-1" points="17.5 15 26.65 15 17.5 10.43 17.5 15"/><polygon class="cls-1" points="30 13.32 30 10 23.35 10 30 13.32"/><polygon class="cls-2" points="17.5 10 17.5 10.43 26.65 15 30 15 20 10 17.5 10"/><polygon class="cls-2" points="20 5 23.35 5 30 1.68 30 0 20 5"/><polygon class="cls-2" points="17.5 5 17.76 5 27.76 0 26.65 0 17.5 4.57 17.5 5"/><polygon class="cls-2" points="6.65 10 0 13.32 0 15 10 10 6.65 10"/><polygon class="cls-2" points="7.76 5 0 1.12 0 1.68 6.65 5 7.76 5"/><polygon class="cls-2" points="22.24 10 30 13.88 30 13.32 23.35 10 22.24 10"/><polygon class="cls-2" points="12.5 5 12.5 4.57 3.35 0 0 0 10 5 12.5 5"/><polygon class="cls-2" points="12.5 10 12.24 10 2.24 15 3.35 15 12.5 10.43 12.5 10"/><polygon class="cls-2" points="0 9 0 10 6.65 10 10 10 12.24 10 12.5 10 12.5 10.43 12.5 15 13.5 15 13.5 9 0 9"/><polygon class="cls-2" points="13.5 0 12.5 0 12.5 4.57 12.5 5 10 5 7.76 5 6.65 5 0 5 0 6 13.5 6 13.5 0"/><polygon class="cls-2" points="20 5 17.76 5 17.5 5 17.5 4.57 17.5 0 16.5 0 16.5 6 30 6 30 5 23.35 5 20 5"/><polygon class="cls-2" points="16.5 15 17.5 15 17.5 10.43 17.5 10 20 10 22.24 10 23.35 10 30 10 30 9 16.5 9 16.5 15"/><polygon class="cls-3" points="16.5 0 13.5 0 13.5 6 0 6 0 9 13.5 9 13.5 15 16.5 15 16.5 9 30 9 30 6 16.5 6 16.5 0"/><polygon class="cls-3" points="20 10 30 15 30 13.88 22.24 10 20 10"/><polygon class="cls-3" points="10 10 0 15 2.24 15 12.24 10 10 10"/><polygon class="cls-3" points="20 5 30 0 27.76 0 17.76 5 20 5"/><polygon class="cls-3" points="10 5 0 0 0 1.12 7.76 5 10 5"/></svg>