<svg id="RWD_Icon_Set" data-name="RWD Icon Set" xmlns="http://www.w3.org/2000/svg" viewBox="0 0 30 20"><defs><style>.cls-1{fill:red;fill-opacity:0.98;stroke:#000;stroke-width:0.05px;}.cls-2{fill:#0007a0;}.cls-3{fill:#fff;}.cls-4{fill:#f7f7ff;fill-opacity:0.99;stroke:#0000ac;stroke-opacity:0.89;stroke-width:0.31px;}</style></defs><g id="layer1"><rect id="rect1331" class="cls-1" width="30" height="20"/><rect id="rect2206" class="cls-2" x="0.02" y="0.03" width="15" height="10"/><path id="path3081" class="cls-3" d="M9.34,7.68L7.8,6.51,7.57,8.37,6.85,6.63,5.67,8.13,6,6.28,4.16,7,5.38,5.56l-2-.22,1.83-.68L3.68,3.55,5.63,3.82,4.85,2.11,6.39,3.27,6.62,1.42,7.34,3.15l1.18-1.5L8.22,3.5,10,2.76,8.8,4.22l2,0.22-1.83.68L10.5,6.24,8.56,6Z"/><path id="path5750" class="cls-4" d="M8.85,4.93A1.69,1.69,0,0,1,7.12,6.57,1.69,1.69,0,0,1,5.38,4.93h0A1.69,1.69,0,0,1,7.12,3.29,1.69,1.69,0,0,1,8.85,4.93Z"/></g></svg>