<svg id="RWD_Icon_Set" data-name="RWD Icon Set" xmlns="http://www.w3.org/2000/svg" viewBox="0 0 30 15"><defs><style>.cls-1{fill:red;}.cls-2{fill:#fff;}</style></defs><rect class="cls-1" width="30" height="15"/><rect class="cls-2" x="7.5" width="15" height="15"/><path class="cls-1" d="M15,1.41L14,3.32a0.35,0.35,0,0,1-.53.07L12.7,3l0.55,2.93c0.12,0.54-.25.54-0.44,0.3L11.52,4.79l-0.21.74A0.25,0.25,0,0,1,11,5.7L9.39,5.35,9.82,6.91C9.91,7.26,10,7.4,9.72,7.49l-0.58.27L12,10.05a0.37,0.37,0,0,1,.13.38l-0.25.81c1-.11,1.84-0.28,2.81-0.38a0.28,0.28,0,0,1,.23.23l-0.13,3h0.47l-0.07-3a0.28,0.28,0,0,1,.22-0.24c1,0.11,1.84.27,2.81,0.38l-0.25-.81A0.37,0.37,0,0,1,18,10.05l2.81-2.29-0.58-.27C20,7.4,20.09,7.26,20.19,6.91l0.43-1.56L19,5.7a0.25,0.25,0,0,1-.29-0.17l-0.21-.74L17.18,6.24c-0.18.23-.55,0.23-0.44-0.3L17.3,3l-0.74.38A0.35,0.35,0,0,1,16,3.32Z"/></svg>