<svg id="RWD_Icon_Set" data-name="RWD Icon Set" xmlns="http://www.w3.org/2000/svg" viewBox="0 0 30 20"><defs><style>.cls-1{fill:#fff;stroke:#000;stroke-width:0.1px;}.cls-2{fill:#c60c30;}.cls-3{fill:#003478;}</style></defs><g id="layer1"><rect id="rect2160" class="cls-1" width="30" height="20"/></g><g id="layer5"><path id="path16870" class="cls-2" d="M10.82,7.26a5,5,0,1,1,8.32,5.55"/><path id="path16872" class="cls-3" d="M19.19,12.74a5,5,0,0,1-8.32-5.55"/><path id="path17845" class="cls-3" d="M15,10a2.5,2.5,0,0,1,4.16,2.77"/><path id="path17847" class="cls-2" d="M15.08,9.89a2.5,2.5,0,0,1-4.16-2.77"/></g><g id="layer3"><rect id="rect8171" x="3.85" y="3.81" width="4.99" height="0.83" transform="translate(-0.69 7.16) rotate(-56.3)"/><rect id="rect8173" x="5.93" y="5.19" width="4.99" height="0.83" transform="translate(-0.92 9.5) rotate(-56.3)"/><rect id="rect8175" x="4.89" y="4.5" width="4.99" height="0.83" transform="translate(-0.8 8.33) rotate(-56.3)"/><rect id="rect8199" x="22.25" y="13.56" width="2.29" height="0.83" transform="translate(-1.21 25.68) rotate(-56.3)"/><rect id="rect9171" x="20.75" y="15.8" width="2.29" height="0.83" transform="translate(-3.75 25.43) rotate(-56.3)"/><rect id="rect9173" x="23.28" y="14.25" width="2.29" height="0.83" transform="matrix(0.55, -0.83, 0.83, 0.55, -1.32, 26.85)"/><rect id="rect9175" x="21.21" y="12.86" width="2.29" height="0.83" transform="translate(-1.1 24.51) rotate(-56.3)"/><rect id="rect9177" x="19.71" y="15.11" width="2.29" height="0.83" transform="translate(-3.64 24.26) rotate(-56.3)"/><rect id="rect9179" x="21.78" y="16.5" width="2.29" height="0.83" transform="translate(-3.86 26.6) rotate(-56.3)"/><rect id="rect9205" x="20.39" y="3.37" width="0.83" height="2.29" transform="translate(0.99 12.3) rotate(-33.7)"/><rect id="rect9207" x="21.89" y="5.62" width="0.83" height="2.29" transform="translate(0 13.51) rotate(-33.7)"/><rect id="rect9209" x="23.96" y="4.23" width="0.83" height="2.29" transform="translate(1.11 14.43) rotate(-33.7)"/><rect id="rect9211" x="22.46" y="1.98" width="0.83" height="2.29" transform="translate(2.11 13.22) rotate(-33.7)"/><rect id="rect9213" x="22.18" y="2.45" width="0.83" height="4.99" transform="translate(1.05 13.37) rotate(-33.7)"/><rect id="rect9231" x="7.75" y="15.04" width="0.83" height="2.29" transform="translate(-7.6 7.25) rotate(-33.7)"/><rect id="rect9233" x="6.25" y="12.79" width="0.83" height="2.29" transform="translate(-6.61 6.04) rotate(-33.7)"/><rect id="rect9235" x="5.96" y="13.25" width="0.83" height="4.99" transform="translate(-7.67 6.19) rotate(-33.7)"/><rect id="rect9237" x="8.04" y="11.87" width="0.83" height="4.99" transform="translate(-6.55 7.11) rotate(-33.7)"/></g></svg>